PathFileType	4	(X/Y/Z)	C:/Users/opensim2020/Desktop/walking_exp_matlab/subject01_walking12_straight_03.trc																																																																																																																																		
DataRate	CameraRate	NumFrames	NumMarkers	Units	OrigDataRate	OrigDataStartFrame	OrigNumFrames																																																																																																																														
100	100	4	44	mm	100	1906	172																																																																																																																														
Frame#	Time	LFHD			RFHD			LBHD			RBHD			C7			T10			CLAV			STRN			RBAK			LSHO			LUPA			LELB			LFRM			LWRA			LWRB			LFIN			RSHO			RUPA			RELB			RFRM			RWRA			RWRB			RFIN			LASI			RASI			LPSI			RPSI			LTHI			LKNE			LTIB			LANK			LHEE			LTOE			RTHI			RKNE			RTIB			RANK			RHEE			RTOE			*39			*40			*41			*42			*43		
		X1	Y1	Z1	X2	Y2	Z2	X3	Y3	Z3	X4	Y4	Z4	X5	Y5	Z5	X6	Y6	Z6	X7	Y7	Z7	X8	Y8	Z8	X9	Y9	Z9	X10	Y10	Z10	X11	Y11	Z11	X12	Y12	Z12	X13	Y13	Z13	X14	Y14	Z14	X15	Y15	Z15	X16	Y16	Z16	X17	Y17	Z17	X18	Y18	Z18	X19	Y19	Z19	X20	Y20	Z20	X21	Y21	Z21	X22	Y22	Z22	X23	Y23	Z23	X24	Y24	Z24	X25	Y25	Z25	X26	Y26	Z26	X27	Y27	Z27	X28	Y28	Z28	X29	Y29	Z29	X30	Y30	Z30	X31	Y31	Z31	X32	Y32	Z32	X33	Y33	Z33	X34	Y34	Z34	X35	Y35	Z35	X36	Y36	Z36	X37	Y37	Z37	X38	Y38	Z38	X39	Y39	Z39	X40	Y40	Z40	X41	Y41	Z41	X42	Y42	Z42	X43	Y43	Z43	X44	Y44	Z44
																																																																																																																																					
130	1.29	569.789	1654.33386	-1082.03943	583.77966	1657.41699	-968.49518	451.116	1616.9635	-1074.91687	463.03989	1619.34583	-953.96991	403.20041	1420.7738	-1029.04248	366.41974	1126.19739	-1022.21832	546.98444	1352.2616	-1034.06824	589.82385	1198.32336	-1039.37683	350.67615	1227.90088	-945.3858	479.64764	1383.04419	-1193.21265	418.85913	1203.41077	-1271.88879	380.60022	1059.22729	-1262.84937	389.19855	945.90607	-1284.46606	434.27982	812.99475	-1264.92285	378.95963	823.49121	-1286.2251	401.50864	740.54785	-1291.75146	491.97665	1381.34082	-879.69135	460.76178	1183.61536	-767.99652	481.39355	1057.23401	-755.3465	567.6485	966.15277	-739.17316	691.73303	911.40338	-779.33734	661.50415	887.88843	-736.02466	734.70642	848.3374	-744.12531	549.0672	923.21228	-1129.047	535.32092	920.18695	-910.87048	359.73676	928.85553	-1091.7655	352.19809	937.57196	-949.34216	603.1604	610.21582	-1203.08325	638.98914	483.45584	-1184.05688	654.28369	297.84998	-1199.90527	721.41101	82.05078	-1157.7854	692.0246	38.56002	-1101.88306	870.27795	93.83413	-1159.19495	416.46426	597.15399	-866.54279	384.51688	438.57022	-895.24567	276.81555	296.92444	-894.49713	184.73398	109.95177	-947.74622	126.6934	90.50607	-998.64484	308.6944	36.50554	-959.60217	573.97296	1691.9386	-990.35297	1973.16956	1023.60297	-3101.95093	2012.56433	1022.14862	-3140.64063	NaN	NaN	NaN	NaN	NaN	NaN
131	1.3	580.80206	1653.65796	-1083.97937	594.56104	1656.77954	-970.22229	462.13846	1616.31775	-1076.82349	473.89185	1618.76514	-955.91895	414.31335	1419.78076	-1030.98938	378.56348	1125.25513	-1023.78223	558.2868	1351.80688	-1035.8042	601.8504	1198.10425	-1040.96875	362.0918	1226.99963	-946.98755	490.84271	1382.11633	-1195.10095	430.42172	1202.20923	-1273.46057	392.44528	1058.06836	-1264.3075	401.25531	944.7207	-1285.828	445.94812	811.83563	-1265.56287	391.0043	822.37091	-1287.71802	413.51505	739.36523	-1292.79443	502.68924	1380.93372	-881.69037	470.78418	1183.52246	-769.62891	490.91043	1057.04395	-756.88867	577.12256	965.86346	-740.54956	701.22589	911.16418	-780.40857	670.69885	887.63336	-737.3385	744.05457	847.9671	-745.11438	561.95129	922.78009	-1130.19934	547.37732	919.14325	-912.07782	372.4805	928.39984	-1093.23865	364.52377	937.08313	-950.99536	617.82294	610.18976	-1202.03296	652.15308	482.68036	-1182.57727	663.08289	295.63437	-1198.31152	725.06848	78.73701	-1155.06152	693.92841	36.87997	-1099.89795	874.17017	87.5173	-1156.05798	426.82703	596.76086	-867.39948	393.98227	438.39398	-895.3147	283.52875	298.70459	-894.45532	187.59415	113.64809	-946.69495	128.82126	95.83347	-997.25366	308.72479	36.21062	-959.29486	584.80377	1691.15186	-992.3028	1973.13025	1023.5318	-3101.93286	2012.52014	1021.98083	-3140.80859	NaN	NaN	NaN	NaN	NaN	NaN
132	1.31	591.79877	1653.01514	-1085.76257	605.42413	1656.18481	-972.07068	473.07452	1615.64111	-1078.75256	484.70096	1618.1571	-957.92993	425.38501	1418.69434	-1033.29712	390.9144	1124.19031	-1025.28882	569.71283	1351.40454	-1037.66089	614.0304	1197.93213	-1042.63135	373.58319	1225.94409	-948.75867	502.22461	1381.20032	-1197.08313	442.02701	1201.10059	-1275.21802	404.55838	1056.92505	-1265.92419	413.58289	943.51178	-1287.31689	458.63947	810.81219	-1267.02502	403.42557	821.28033	-1289.22766	426.20203	738.24213	-1294.14233	513.33582	1380.41455	-883.60181	480.56723	1183.36169	-771.31232	500.0882	1056.76807	-758.56586	586.18109	965.47534	-741.94263	710.33844	910.54974	-781.48975	679.89282	887.06421	-738.45648	753.05792	847.31165	-746.14905	575.20978	922.31146	-1131.41187	560.25201	918.38086	-912.91443	385.5813	927.90631	-1094.84888	377.10162	936.65948	-952.7442	631.96576	609.48822	-1200.33472	665.09729	481.82056	-1180.87769	671.56909	293.34256	-1196.78906	727.54816	75.62811	-1152.93604	695.05444	35.33085	-1098.177	876.9397	80.2357	-1152.4624	437.72321	596.26154	-868.18365	403.73672	437.75211	-895.49915	290.677	300.48804	-894.30823	190.49515	117.3177	-945.69684	131.22998	101.09646	-996.11987	309.20807	36.17826	-959.07593	595.63379	1690.52563	-994.07092	1973.09277	1023.3999	-3101.91943	2012.52905	1021.98608	-3140.77856	NaN	NaN	NaN	NaN	NaN	NaN
133	1.32	602.80585	1652.49341	-1087.53198	616.17749	1655.66382	-973.81445	484.0535	1615.03613	-1080.90833	495.26764	1617.5061	-960.03815	436.46765	1417.63269	-1035.63135	403.4516	1123.0752	-1026.95459	581.24432	1351.02405	-1039.59705	626.36896	1197.88123	-1044.37207	385.22455	1224.74585	-950.81543	513.83698	1380.3186	-1199.15198	453.79257	1200.00793	-1277.05603	416.88831	1055.65161	-1267.65527	426.25925	942.29877	-1288.80676	471.56296	809.77631	-1268.21509	416.55612	819.98175	-1290.41296	439.69559	737.20935	-1295.45386	523.88049	1379.91919	-885.58551	490.23663	1183.14331	-773.13831	509.07761	1056.42456	-760.30505	594.90472	964.82452	-743.37323	718.95862	909.55286	-782.5755	688.19312	886.15436	-739.67914	761.43884	846.11646	-747.16693	588.58032	921.76068	-1132.55347	573.02228	917.53851	-914.02301	398.72516	927.4613	-1096.66321	389.78574	936.55676	-954.44849	645.68176	608.78015	-1198.37305	677.23505	480.59125	-1180.02808	679.56555	290.93643	-1194.96716	730.45129	73.82018	-1150.76221	697.06866	36.48488	-1097.75952	881.81097	71.46301	-1148.82019	449.01791	595.76959	-869.16577	414.4642	437.14777	-895.61694	297.95993	302.34445	-894.44489	193.52338	121.33105	-944.58081	134.14314	106.92728	-994.86353	309.72946	36.21049	-959.05975	606.49689	1690.10388	-995.88074	1973.05859	1023.48212	-3101.89722	2012.45215	1022.09357	-3140.72998	NaN	NaN	NaN	NaN	NaN	NaN
